<?xml version="1.0" encoding="UTF-8"?>
<svg width="600px" height="600px" viewBox="0 0 600 600" version="1.1" xmlns="http://www.w3.org/2000/svg" xmlns:xlink="http://www.w3.org/1999/xlink">
    <title>Calzan_holz</title>
    <g id="Calzan_holz" stroke="none" stroke-width="1" fill="none" fill-rule="evenodd">
        <path d="M300,17.2820323 C308.977786,17.2820323 317.955572,19.6042586 326,24.2487113 L326,24.2487113 L525.807621,139.607695 C533.852049,144.252148 540.352049,150.866025 544.840942,158.641016 C549.329835,166.416007 551.807621,175.352111 551.807621,184.641016 L551.807621,184.641016 L551.807621,415.358984 C551.807621,424.647889 549.329835,433.583993 544.840942,441.358984 C540.352049,449.133975 533.852049,455.747852 525.807621,460.392305 L525.807621,460.392305 L326,575.751289 C317.955572,580.395741 308.977786,582.717968 300,582.717968 C291.022214,582.717968 282.044428,580.395741 274,575.751289 L274,575.751289 L74.1923789,460.392305 C66.1479509,455.747852 59.6479509,449.133975 55.1590579,441.358984 C50.6701649,433.583993 48.1923789,424.647889 48.1923789,415.358984 L48.1923789,415.358984 L48.1923789,184.641016 C48.1923789,166.063205 58.1035229,148.8966 74.1923789,139.607695 L74.1923789,139.607695 L274,24.2487113 C282.044428,19.6042586 291.022214,17.2820323 300,17.2820323 Z" id="Polygon" stroke="#4F702A" stroke-width="16" fill="#6E9B3C"></path>
    </g>
</svg>